<mxfile host="app.diagrams.net" modified="2023-08-31T00:09:12.066Z" agent="Mozilla/5.0 (Windows NT 10.0; Win64; x64) AppleWebKit/537.36 (KHTML, like Gecko) Chrome/116.0.0.0 Safari/537.36 Edg/116.0.1938.62" etag="6Zz_--Ct8QMb1zfCPvKr" version="21.7.0" type="github">
  <diagram name="Page-1" id="_3taAUN7aJ5koNvZiNKl">
    <mxGraphModel dx="657" dy="379" grid="1" gridSize="10" guides="1" tooltips="1" connect="1" arrows="1" fold="1" page="1" pageScale="1" pageWidth="850" pageHeight="1100" math="0" shadow="0">
      <root>
        <mxCell id="0" />
        <mxCell id="1" parent="0" />
        <mxCell id="TOH4lSsbGCEATRDTj4Fx-68" value="" style="edgeStyle=orthogonalEdgeStyle;rounded=0;orthogonalLoop=1;jettySize=auto;html=1;" parent="1" source="TOH4lSsbGCEATRDTj4Fx-61" target="TOH4lSsbGCEATRDTj4Fx-67" edge="1">
          <mxGeometry relative="1" as="geometry" />
        </mxCell>
        <mxCell id="TOH4lSsbGCEATRDTj4Fx-61" value="Start" style="ellipse;html=1;shape=startState;" parent="1" vertex="1">
          <mxGeometry x="200" width="40" height="40" as="geometry" />
        </mxCell>
        <mxCell id="TOH4lSsbGCEATRDTj4Fx-71" value="" style="edgeStyle=orthogonalEdgeStyle;rounded=0;orthogonalLoop=1;jettySize=auto;html=1;" parent="1" source="TOH4lSsbGCEATRDTj4Fx-67" target="TOH4lSsbGCEATRDTj4Fx-70" edge="1">
          <mxGeometry relative="1" as="geometry" />
        </mxCell>
        <mxCell id="TOH4lSsbGCEATRDTj4Fx-67" value="Player Running" style="whiteSpace=wrap;html=1;rounded=1;" parent="1" vertex="1">
          <mxGeometry x="175" y="60" width="90" height="30" as="geometry" />
        </mxCell>
        <mxCell id="TOH4lSsbGCEATRDTj4Fx-86" style="edgeStyle=orthogonalEdgeStyle;rounded=0;orthogonalLoop=1;jettySize=auto;html=1;" parent="1" source="TOH4lSsbGCEATRDTj4Fx-70" edge="1">
          <mxGeometry relative="1" as="geometry">
            <mxPoint x="289.9999999999999" y="150" as="targetPoint" />
          </mxGeometry>
        </mxCell>
        <mxCell id="O6jFMOM33L-5rmhprsdd-16" value="Yes" style="edgeLabel;html=1;align=center;verticalAlign=middle;resizable=0;points=[];" vertex="1" connectable="0" parent="TOH4lSsbGCEATRDTj4Fx-86">
          <mxGeometry x="-0.4605" y="-1" relative="1" as="geometry">
            <mxPoint as="offset" />
          </mxGeometry>
        </mxCell>
        <mxCell id="O6jFMOM33L-5rmhprsdd-14" style="edgeStyle=orthogonalEdgeStyle;orthogonalLoop=1;jettySize=auto;html=1;shadow=0;rounded=1;" edge="1" parent="1" source="TOH4lSsbGCEATRDTj4Fx-70" target="TOH4lSsbGCEATRDTj4Fx-67">
          <mxGeometry relative="1" as="geometry">
            <mxPoint x="90" y="80" as="targetPoint" />
            <Array as="points">
              <mxPoint x="130" y="150" />
              <mxPoint x="130" y="75" />
            </Array>
          </mxGeometry>
        </mxCell>
        <mxCell id="O6jFMOM33L-5rmhprsdd-15" value="No" style="edgeLabel;html=1;align=center;verticalAlign=middle;resizable=0;points=[];" vertex="1" connectable="0" parent="O6jFMOM33L-5rmhprsdd-14">
          <mxGeometry x="-0.7678" y="-2" relative="1" as="geometry">
            <mxPoint as="offset" />
          </mxGeometry>
        </mxCell>
        <mxCell id="TOH4lSsbGCEATRDTj4Fx-70" value="Player Colliding?" style="rhombus;whiteSpace=wrap;html=1;" parent="1" vertex="1">
          <mxGeometry x="180" y="110" width="80" height="80" as="geometry" />
        </mxCell>
        <mxCell id="TOH4lSsbGCEATRDTj4Fx-113" style="edgeStyle=orthogonalEdgeStyle;rounded=1;orthogonalLoop=1;jettySize=auto;html=1;entryX=0;entryY=0.5;entryDx=0;entryDy=0;" parent="1" source="TOH4lSsbGCEATRDTj4Fx-88" target="TOH4lSsbGCEATRDTj4Fx-111" edge="1">
          <mxGeometry relative="1" as="geometry">
            <Array as="points">
              <mxPoint x="330" y="60" />
            </Array>
          </mxGeometry>
        </mxCell>
        <mxCell id="TOH4lSsbGCEATRDTj4Fx-116" value="Obstacle" style="edgeLabel;html=1;align=center;verticalAlign=middle;resizable=0;points=[];" parent="TOH4lSsbGCEATRDTj4Fx-113" vertex="1" connectable="0">
          <mxGeometry x="-0.6041" y="2" relative="1" as="geometry">
            <mxPoint as="offset" />
          </mxGeometry>
        </mxCell>
        <mxCell id="O6jFMOM33L-5rmhprsdd-2" value="" style="edgeStyle=orthogonalEdgeStyle;rounded=0;orthogonalLoop=1;jettySize=auto;html=1;" edge="1" parent="1" source="TOH4lSsbGCEATRDTj4Fx-88" target="O6jFMOM33L-5rmhprsdd-1">
          <mxGeometry relative="1" as="geometry" />
        </mxCell>
        <mxCell id="O6jFMOM33L-5rmhprsdd-3" value="Collectable" style="edgeLabel;html=1;align=center;verticalAlign=middle;resizable=0;points=[];" vertex="1" connectable="0" parent="O6jFMOM33L-5rmhprsdd-2">
          <mxGeometry x="-0.3505" relative="1" as="geometry">
            <mxPoint as="offset" />
          </mxGeometry>
        </mxCell>
        <mxCell id="TOH4lSsbGCEATRDTj4Fx-88" value="&lt;span style=&quot;font-size: 9px;&quot;&gt;Check Entitys Tag&lt;/span&gt;" style="rhombus;whiteSpace=wrap;html=1;" parent="1" vertex="1">
          <mxGeometry x="290" y="110" width="80" height="80" as="geometry" />
        </mxCell>
        <mxCell id="TOH4lSsbGCEATRDTj4Fx-120" value="" style="edgeStyle=orthogonalEdgeStyle;rounded=0;orthogonalLoop=1;jettySize=auto;html=1;" parent="1" source="TOH4lSsbGCEATRDTj4Fx-111" target="TOH4lSsbGCEATRDTj4Fx-119" edge="1">
          <mxGeometry relative="1" as="geometry" />
        </mxCell>
        <mxCell id="TOH4lSsbGCEATRDTj4Fx-111" value="defeat player." style="ellipse;whiteSpace=wrap;html=1;align=center;fontSize=8;" parent="1" vertex="1">
          <mxGeometry x="360" y="40" width="100" height="40" as="geometry" />
        </mxCell>
        <mxCell id="TOH4lSsbGCEATRDTj4Fx-122" style="edgeStyle=orthogonalEdgeStyle;rounded=0;orthogonalLoop=1;jettySize=auto;html=1;entryX=0;entryY=0.5;entryDx=0;entryDy=0;" parent="1" source="TOH4lSsbGCEATRDTj4Fx-119" target="TOH4lSsbGCEATRDTj4Fx-121" edge="1">
          <mxGeometry relative="1" as="geometry" />
        </mxCell>
        <mxCell id="TOH4lSsbGCEATRDTj4Fx-119" value="Save stats&lt;br&gt;- Distance travelled&lt;br&gt;- coins collected" style="ellipse;whiteSpace=wrap;html=1;align=center;fontSize=8;" parent="1" vertex="1">
          <mxGeometry x="480" y="40" width="100" height="40" as="geometry" />
        </mxCell>
        <mxCell id="TOH4lSsbGCEATRDTj4Fx-121" value="&lt;font style=&quot;font-size: 9px;&quot;&gt;End&lt;/font&gt;" style="ellipse;html=1;shape=endState;" parent="1" vertex="1">
          <mxGeometry x="630" y="45" width="30" height="30" as="geometry" />
        </mxCell>
        <mxCell id="O6jFMOM33L-5rmhprsdd-10" style="edgeStyle=orthogonalEdgeStyle;rounded=0;orthogonalLoop=1;jettySize=auto;html=1;exitX=0;exitY=0.5;exitDx=0;exitDy=0;entryX=1;entryY=0.5;entryDx=0;entryDy=0;" edge="1" parent="1" source="O6jFMOM33L-5rmhprsdd-1" target="O6jFMOM33L-5rmhprsdd-9">
          <mxGeometry relative="1" as="geometry" />
        </mxCell>
        <mxCell id="O6jFMOM33L-5rmhprsdd-11" value="Powerup" style="edgeLabel;html=1;align=center;verticalAlign=middle;resizable=0;points=[];" vertex="1" connectable="0" parent="O6jFMOM33L-5rmhprsdd-10">
          <mxGeometry x="-0.3086" relative="1" as="geometry">
            <mxPoint x="-6" as="offset" />
          </mxGeometry>
        </mxCell>
        <mxCell id="O6jFMOM33L-5rmhprsdd-19" style="edgeStyle=orthogonalEdgeStyle;rounded=1;orthogonalLoop=1;jettySize=auto;html=1;entryX=1;entryY=0.5;entryDx=0;entryDy=0;" edge="1" parent="1" source="O6jFMOM33L-5rmhprsdd-1" target="O6jFMOM33L-5rmhprsdd-18">
          <mxGeometry relative="1" as="geometry">
            <Array as="points">
              <mxPoint x="330" y="350" />
            </Array>
          </mxGeometry>
        </mxCell>
        <mxCell id="O6jFMOM33L-5rmhprsdd-22" value="Coin" style="edgeLabel;html=1;align=center;verticalAlign=middle;resizable=0;points=[];" vertex="1" connectable="0" parent="O6jFMOM33L-5rmhprsdd-19">
          <mxGeometry x="0.2268" y="1" relative="1" as="geometry">
            <mxPoint as="offset" />
          </mxGeometry>
        </mxCell>
        <mxCell id="O6jFMOM33L-5rmhprsdd-1" value="&lt;font style=&quot;font-size: 6px;&quot;&gt;Check collectable type&lt;/font&gt;" style="rhombus;whiteSpace=wrap;html=1;" vertex="1" parent="1">
          <mxGeometry x="290" y="250" width="80" height="80" as="geometry" />
        </mxCell>
        <mxCell id="O6jFMOM33L-5rmhprsdd-12" style="edgeStyle=orthogonalEdgeStyle;rounded=1;orthogonalLoop=1;jettySize=auto;html=1;entryX=0;entryY=0.5;entryDx=0;entryDy=0;exitX=0.001;exitY=0.394;exitDx=0;exitDy=0;exitPerimeter=0;" edge="1" parent="1" source="O6jFMOM33L-5rmhprsdd-9">
          <mxGeometry relative="1" as="geometry">
            <mxPoint x="130" y="290" as="sourcePoint" />
            <mxPoint x="175" y="75" as="targetPoint" />
            <Array as="points">
              <mxPoint x="130" y="286" />
              <mxPoint x="130" y="75" />
            </Array>
          </mxGeometry>
        </mxCell>
        <mxCell id="O6jFMOM33L-5rmhprsdd-9" value="Apply Powerup Affect" style="ellipse;whiteSpace=wrap;html=1;align=center;" vertex="1" parent="1">
          <mxGeometry x="140" y="270" width="100" height="40" as="geometry" />
        </mxCell>
        <mxCell id="O6jFMOM33L-5rmhprsdd-21" style="edgeStyle=orthogonalEdgeStyle;rounded=1;orthogonalLoop=1;jettySize=auto;html=1;entryX=0;entryY=0.5;entryDx=0;entryDy=0;" edge="1" parent="1" source="O6jFMOM33L-5rmhprsdd-18" target="TOH4lSsbGCEATRDTj4Fx-67">
          <mxGeometry relative="1" as="geometry">
            <Array as="points">
              <mxPoint x="130" y="350" />
              <mxPoint x="130" y="75" />
            </Array>
          </mxGeometry>
        </mxCell>
        <mxCell id="O6jFMOM33L-5rmhprsdd-18" value="&lt;font style=&quot;font-size: 7px;&quot;&gt;Collect coin&lt;/font&gt;" style="ellipse;whiteSpace=wrap;html=1;align=center;" vertex="1" parent="1">
          <mxGeometry x="140" y="330" width="100" height="40" as="geometry" />
        </mxCell>
      </root>
    </mxGraphModel>
  </diagram>
</mxfile>
